<svg xmlns="http://www.w3.org/2000/svg" viewBox="64 64 896 896"><g fill="#148755"><path d="M392.3081951 891.103861c153.4377061-7.04783917 137.6935623-428.418655-17.1063521-419.742521-131.3356692 7.34238563-152.5037783 247.4881039-96.7057369 337.92713-2.25358436-3.64563414-1.52716537-2.52215768 0 0 35.2350512 58.1135192 78.6212474 83.4373307 113.8148521 81.8236803m133.0239233-406.811213c65.6402036-67.7208179 230.0888632-27.7525764 217.8897767 63.1285457-5.66628917-53.4328278-62.750001-90.9308579-132.7724812-81.8374958-136.5966116 17.73772045-139.0999802 380.893335-30.1647627 420.378034 99.7617255 26.76532077 154.8938598-34.9587412 172.4257293-76.6843143-3.05377812 89.8200917-166.4353285 144.5571027-224.5267429 69.0360535-16.3658413 18.6205309-13.4452446-54.0600515-12.12531173-20.1816824-28.0150709-11.3038421-22.30899309 38.1749896-28.9047891 8.42911286-19.00266763 17.29120349-31.0268499 31.830912-66.3945299 40.8994062-286.201898 39.4791728-247.131664-564.971057 37.9484154-433.696176"/><path d="M527.421022 910.058727v36.0142454h-50.2718414v-527.282373h50.2718414zM527.421022 418.779547h-50.2690783l-76.5599748-42.2975348h202.0240565zm-22.53280419-60.8379358c-10.25469303-.3821091-11.1187144-8.9938905-24.06908779-7.02849747.28680978 32.8449697 22.81602194 13.39661404 48.1276758 14.05699494-11.0081904-16.01161188 20.68207981-26.42103851 0-28.100727-4.48893226 10.112946-12.51325097 17.14116716-24.05941694 21.07222953m8.0102269-42.1455643c-.33626927-9.68300764 3.785447-15.4374397 8.02459502-21.08107145-11.04438701.31841964-17.60232855-3.31737786-24.05693015-7.02877378-2.24418982 16.0094014 1.93002535 26.40805194 16.03482192 28.1090163m0-63.247359c-1.78137057-5.44662272-.2155218-13.84672303-8.01271369-14.04373206v35.1272903c25.77557835 6.18243625 10.98194095-23.15698848 32.0823541-21.08328193-2.55890691 8.61949045 1.29147294 43.408301 8.02210823 21.08328193 2.08116692-29.0539965-9.52965559-28.2637499-32.0934065-21.08328193m-48.1110972 35.1383427c26.663915 8.64187156 19.61856262-47.5032152 8.0102269-49.18318-.0746037 18.66805622 3.03416011 40.1229751-8.0102269 49.18318m16.03482192-56.2069802h16.04670325c8.97510142-10.11543279 8.64877931-17.14171978-8.02459502-21.08355824.35063739 9.67416572-3.77356567 15.42666361-8.02210823 21.08355824m-20.15874867 144.5156562c-30.6759362-32.2066936-56.477764-60.8545144-52.0264099-109.3773135 1.68051742-18.402246 32.1320899-55.1763439 40.1036334-84.3187596 9.40227668 1.13038421 6.76904238 12.81387625 8.02459502 21.08134776 18.82417137-32.6791837 40.0235035-73.7885855 40.4628364-122.5876946 12.95037339-1.98691758 22.50406795 20.92827202 22.50406795 20.92827202 14.05202136 44.3394657-13.41595574 78.2592813 17.23511256 108.6754861 22.50379164-11.23393567-11.25797464-31.6236795 0-56.1986909 33.6490318 17.37188601 43.1264648 55.925144 40.1063965 105.3818709 22.17498274-1.65896524 5.92905998-30.9881665 32.0934065-35.1272903 14.10230978 80.268055-38.2247254 113.7043281-72.0975683 151.9594476"/></g></svg>