<svg version="1.1" viewBox="0 0 44.563 31.32" xmlns="http://www.w3.org/2000/svg">
 <g fill="#148755">
  <path d="m6.0721 29.331c5.5531-0.25507 4.9833-15.505-0.6191-15.191-4.7532 0.26573-5.5193 8.9569-3.4999 12.23-0.08156-0.13194-0.05527-0.09128 0 0 1.2752 2.1032 2.8454 3.0197 4.1191 2.9613m4.8143-14.723c2.3756-2.4509 8.3272-1.0044 7.8857 2.2847-0.20507-1.9338-2.271-3.2909-4.8052-2.9618-4.9436 0.64195-5.0342 13.785-1.0917 15.214 3.6105 0.96867 5.6058-1.2652 6.2403-2.7753-0.11052 3.2507-6.0235 5.2317-8.1259 2.4985-0.5923 0.6739-0.4866-1.9565-0.43883-0.7304-1.0139-0.4091-0.80739 1.3816-1.0461 0.30506-0.68773 0.62579-1.1229 1.152-2.4029 1.4802-10.358 1.4288-8.944-20.447 1.3734-15.696" stroke-width="1.3097"/>
  <path d="m10.962 30.017v1.3034h-1.8194v-19.083h1.8194z" stroke-width="1.2335"/>
  <path d="m10.962 12.237h-1.8193l-2.7708-1.5308h7.3115zm-0.81549-2.2018c-0.37113-0.013829-0.4024-0.3255-0.87109-0.25437 0.01038 1.1887 0.82574 0.48484 1.7418 0.50874-0.3984-0.57948 0.74851-0.95621 0-1.017-0.16246 0.366-0.45287 0.62036-0.87074 0.76263m0.2899-1.5253c-0.01217-0.35044 0.137-0.5587 0.29042-0.76295-0.39971 0.011524-0.63705-0.12006-0.87065-0.25438-0.08122 0.5794 0.06985 0.95574 0.58032 1.0173m0-2.289c-0.06447-0.19712-0.0078-0.50113-0.28999-0.50826v1.2713c0.93285 0.22375 0.39745-0.83808 1.1611-0.76303-0.09261 0.31195 0.04674 1.571 0.29033 0.76303 0.07532-1.0515-0.34489-1.0229-1.1615-0.76303m-1.7412 1.2717c0.965 0.31276 0.71002-1.7192 0.2899-1.78-0.0027 0.67562 0.10981 1.4521-0.2899 1.78m0.58032-2.0342h0.58075c0.32482-0.36609 0.31301-0.62038-0.29042-0.76304 0.01269 0.35012-0.13657 0.55831-0.29033 0.76304m-0.72957 5.2302c-1.1102-1.1656-2.044-2.2024-1.8829-3.9585 0.06082-0.666 1.1629-1.9969 1.4514-3.0516 0.34028 0.04091 0.24498 0.46375 0.29042 0.76296 0.68127-1.1827 1.4485-2.6705 1.4644-4.4366 0.46869-0.071909 0.81445 0.75742 0.81445 0.75742 0.50856 1.6047-0.48554 2.8323 0.62376 3.9331 0.81444-0.40657-0.40744-1.1445 0-2.0339 1.2178 0.62871 1.5608 2.024 1.4515 3.8139 0.80254-0.06004 0.21458-1.1215 1.1615-1.2713 0.51038 2.905-1.3834 4.1151-2.6093 5.4996" stroke-width="1.116"/>
 </g>
 <g fill="#000000" wordSpacing="0px">
  <text x="26.69491" y="21.603811" fontFamily="'Neo Sans Std'" fontSize="40px" letterSpacing="0px" style="lineHeight:1.25" xmlSpace="preserve"><tspan x="26.69491" y="57.203812"/></text>
  <text x="29.440674" y="1.3665265" fontFamily="'Noto Sans CJK SC'" fontSize="18.667px" letterSpacing="0px" style="lineHeight:1.25" xmlSpace="preserve"><tspan x="29.440674" y="20.126526"/></text>
  <text x="13.504355" y="21.569962" fontFamily="'Neo Sans Std'" fontSize="6.4888px" letterSpacing=".28px" strokeWidth=".34762" style="line-height:0.25" xmlSpace="preserve"><tspan x="13.504355" y="21.569962" style="line-height:0.25">DILSHAAD</tspan><tspan x="13.504355" y="27.683369" dx="0 0 1.4400001" dy="0 0 0" style="line-height:0.25">  CLINIC</tspan></text>
 </g>
</svg>
